<svg width="186" height="40" viewBox="0 0 186 40" fill="none" xmlns="http://www.w3.org/2000/svg">
<path d="M59.43 28C59.078 28 58.902 27.8607 58.902 27.582V27.494C58.902 27.318 59.0487 27.054 59.342 26.702C59.6353 26.3353 59.782 25.9687 59.782 25.602V14.778C59.782 14.4113 59.6353 14.052 59.342 13.7C59.0487 13.3333 58.902 13.062 58.902 12.886V12.798C58.902 12.5193 59.0707 12.38 59.408 12.38H69.748C69.9827 12.38 70.1513 12.4387 70.254 12.556C70.3713 12.6587 70.452 12.8347 70.496 13.084L71.024 15.856C71.0533 16.0467 71.0167 16.2007 70.914 16.318C70.8113 16.4353 70.6647 16.494 70.474 16.494H70.364C70.0853 16.494 69.7993 16.362 69.506 16.098C69.2273 15.8193 68.978 15.526 68.758 15.218C68.5527 14.8953 68.2813 14.602 67.944 14.338C67.6213 14.0593 67.284 13.92 66.932 13.92H64.82C64.1453 13.92 63.808 14.272 63.808 14.976V19.904H66.272C66.5067 19.904 66.7193 19.816 66.91 19.64C67.1153 19.4493 67.2767 19.244 67.394 19.024C67.5113 18.7893 67.6433 18.584 67.79 18.408C67.9513 18.2173 68.098 18.122 68.23 18.122H68.428C68.7067 18.122 68.846 18.2907 68.846 18.628V22.588C68.846 22.9253 68.7067 23.094 68.428 23.094H68.23C68.054 23.094 67.8707 22.962 67.68 22.698C67.504 22.4193 67.2987 22.1407 67.064 21.862C66.8293 21.5833 66.5653 21.444 66.272 21.444H63.808V25.602C63.808 25.9687 63.9693 26.3353 64.292 26.702C64.6293 27.054 64.798 27.318 64.798 27.494V27.582C64.798 27.8607 64.622 28 64.27 28H59.43ZM77.9513 17.22C78.5819 17.22 79.0806 17.4253 79.4473 17.836C79.8286 18.2467 80.0193 18.7673 80.0193 19.398C80.0193 20.7767 79.4546 21.466 78.3253 21.466C77.8706 21.466 77.5259 21.3633 77.2913 21.158C77.0566 20.938 76.9173 20.696 76.8733 20.432C76.8439 20.168 76.7706 19.9333 76.6533 19.728C76.5359 19.508 76.3599 19.398 76.1253 19.398C75.5826 19.398 75.3113 20.102 75.3113 21.51V25.602C75.3113 25.9687 75.5019 26.3353 75.8833 26.702C76.2793 27.054 76.4773 27.318 76.4773 27.494V27.582C76.4773 27.8607 76.3013 28 75.9493 28H71.2193C70.8673 28 70.6913 27.8607 70.6913 27.582V27.494C70.6913 27.318 70.8379 27.054 71.1313 26.702C71.4246 26.3353 71.5713 25.9687 71.5713 25.602V21.224C71.5713 20.9307 71.4833 20.6813 71.3073 20.476C71.1313 20.2707 70.9553 20.0947 70.7793 19.948C70.6033 19.8013 70.5153 19.64 70.5153 19.464V19.398C70.5153 19.1487 70.6839 18.936 71.0213 18.76L74.1233 17.308C74.4166 17.2053 74.6219 17.198 74.7393 17.286C74.8566 17.374 74.9153 17.5427 74.9153 17.792V19.398C75.4139 17.946 76.4259 17.22 77.9513 17.22ZM89.4626 24.524C89.6239 24.3627 89.7999 24.3187 89.9906 24.392C90.1959 24.4507 90.2912 24.5973 90.2766 24.832C90.2472 25.5653 89.8219 26.3133 89.0006 27.076C88.1792 27.8387 87.1159 28.22 85.8106 28.22C84.2119 28.22 82.9066 27.7067 81.8946 26.68C80.8826 25.6533 80.3766 24.3113 80.3766 22.654C80.3766 21.07 80.9046 19.772 81.9606 18.76C83.0312 17.7333 84.3072 17.22 85.7886 17.22C87.1232 17.22 88.1572 17.528 88.8906 18.144C89.6239 18.76 89.9906 19.4567 89.9906 20.234C89.9906 20.85 89.7046 21.3047 89.1326 21.598L84.7546 24.062C85.3559 25.0153 86.1919 25.492 87.2626 25.492C87.7172 25.492 88.1426 25.404 88.5386 25.228C88.9492 25.0373 89.2572 24.8027 89.4626 24.524ZM85.3926 18.298C84.9526 18.298 84.5932 18.518 84.3146 18.958C84.0506 19.398 83.9186 19.948 83.9186 20.608C83.9186 21.488 84.0286 22.258 84.2486 22.918L86.2946 21.686C86.6759 21.422 86.8666 21.048 86.8666 20.564C86.8666 20.08 86.7419 19.5813 86.4926 19.068C86.2579 18.5547 85.8912 18.298 85.3926 18.298ZM100.226 24.524C100.388 24.3627 100.564 24.3187 100.754 24.392C100.96 24.4507 101.055 24.5973 101.04 24.832C101.011 25.5653 100.586 26.3133 99.7643 27.076C98.9429 27.8387 97.8796 28.22 96.5743 28.22C94.9756 28.22 93.6703 27.7067 92.6583 26.68C91.6463 25.6533 91.1403 24.3113 91.1403 22.654C91.1403 21.07 91.6683 19.772 92.7243 18.76C93.7949 17.7333 95.0709 17.22 96.5523 17.22C97.8869 17.22 98.9209 17.528 99.6543 18.144C100.388 18.76 100.754 19.4567 100.754 20.234C100.754 20.85 100.468 21.3047 99.8963 21.598L95.5183 24.062C96.1196 25.0153 96.9556 25.492 98.0263 25.492C98.4809 25.492 98.9063 25.404 99.3023 25.228C99.7129 25.0373 100.021 24.8027 100.226 24.524ZM96.1562 18.298C95.7163 18.298 95.3569 18.518 95.0783 18.958C94.8143 19.398 94.6823 19.948 94.6823 20.608C94.6823 21.488 94.7923 22.258 95.0123 22.918L97.0583 21.686C97.4396 21.422 97.6303 21.048 97.6303 20.564C97.6303 20.08 97.5056 19.5813 97.2563 19.068C97.0216 18.5547 96.6549 18.298 96.1562 18.298ZM113.124 25.602C113.124 25.9687 113.271 26.3353 113.564 26.702C113.857 27.054 114.004 27.318 114.004 27.494V27.582C114.004 27.8607 113.835 28 113.498 28H110.352C109.971 28 109.78 27.8167 109.78 27.45V27.252C109.091 27.8973 108.196 28.22 107.096 28.22C105.673 28.22 104.449 27.736 103.422 26.768C102.41 25.7853 101.904 24.436 101.904 22.72C101.904 21.1213 102.417 19.8087 103.444 18.782C104.471 17.7407 105.695 17.22 107.118 17.22C108.013 17.22 108.768 17.4253 109.384 17.836V14.91C109.384 14.6167 109.289 14.3673 109.098 14.162C108.907 13.942 108.709 13.7587 108.504 13.612C108.313 13.4507 108.218 13.282 108.218 13.106V13.04C108.218 12.7613 108.387 12.5707 108.724 12.468L112.156 11.434C112.801 11.2287 113.124 11.4047 113.124 11.962V25.602ZM107.976 27.142C108.372 27.1567 108.702 26.9953 108.966 26.658C109.245 26.3207 109.384 25.866 109.384 25.294V21.048C109.384 20.344 109.179 19.7133 108.768 19.156C108.372 18.584 107.917 18.298 107.404 18.298C106.319 18.298 105.739 19.2 105.666 21.004C105.637 21.6933 105.695 22.4927 105.842 23.402C106.003 24.3113 106.267 25.162 106.634 25.954C107.015 26.7313 107.463 27.1273 107.976 27.142ZM120.952 28.22C119.251 28.22 117.806 27.6993 116.618 26.658C115.445 25.602 114.858 24.282 114.858 22.698C114.858 21.114 115.445 19.8087 116.618 18.782C117.792 17.7407 119.185 17.22 120.798 17.22C122.47 17.22 123.893 17.7407 125.066 18.782C126.24 19.8233 126.826 21.1433 126.826 22.742C126.826 24.326 126.254 25.6387 125.11 26.68C123.966 27.7067 122.58 28.22 120.952 28.22ZM121.414 27.142C122.353 27.142 122.822 26.24 122.822 24.436C122.822 23.776 122.727 22.9913 122.536 22.082C122.36 21.1727 122.052 20.3147 121.612 19.508C121.187 18.7013 120.71 18.298 120.182 18.298C119.669 18.298 119.302 18.5253 119.082 18.98C118.862 19.4347 118.752 20.124 118.752 21.048C118.752 21.532 118.811 22.104 118.928 22.764C119.046 23.424 119.207 24.0913 119.412 24.766C119.618 25.426 119.896 25.9907 120.248 26.46C120.615 26.9147 121.004 27.142 121.414 27.142ZM146.493 25.602C146.522 25.9687 146.661 26.3353 146.911 26.702C147.16 27.0687 147.285 27.34 147.285 27.516V27.604C147.285 27.8827 147.109 28.022 146.757 28.022H142.357C142.005 28.022 141.829 27.8827 141.829 27.604V27.516C141.829 27.3547 141.968 27.0907 142.247 26.724C142.525 26.3573 142.65 25.9833 142.621 25.602L142.401 21.708C142.342 20.608 142.195 19.8307 141.961 19.376C141.726 18.9067 141.367 18.672 140.883 18.672C140.443 18.672 140.105 18.8627 139.871 19.244C139.636 19.6253 139.519 20.1313 139.519 20.762C139.563 21.07 139.585 21.378 139.585 21.686V25.602C139.585 25.9687 139.717 26.3353 139.981 26.702C140.245 27.0687 140.377 27.34 140.377 27.516V27.604C140.377 27.8827 140.201 28.022 139.849 28.022H135.471C135.119 28.022 134.943 27.8827 134.943 27.604V27.516C134.943 27.34 135.067 27.0687 135.317 26.702C135.581 26.3353 135.713 25.9687 135.713 25.602V21.422C135.713 19.5887 135.214 18.672 134.217 18.672C133.733 18.672 133.366 18.8627 133.117 19.244C132.867 19.6253 132.743 20.1313 132.743 20.762V25.602C132.743 25.9687 132.904 26.3353 133.227 26.702C133.549 27.0687 133.711 27.34 133.711 27.516V27.604C133.711 27.8827 133.535 28.022 133.183 28.022H128.431C128.079 28.022 127.903 27.8827 127.903 27.604V27.516C127.903 27.34 128.064 27.0687 128.387 26.702C128.709 26.3353 128.871 25.9687 128.871 25.602V21.268C128.871 20.9747 128.768 20.7253 128.563 20.52C128.372 20.3 128.181 20.1093 127.991 19.948C127.8 19.7867 127.705 19.618 127.705 19.442V19.376C127.705 19.1853 127.881 19.002 128.233 18.826L131.533 17.308C131.797 17.1907 132.002 17.1907 132.149 17.308C132.295 17.4253 132.369 17.6013 132.369 17.836V18.628C133.043 17.6893 134.019 17.22 135.295 17.22C136.923 17.22 138.125 17.8213 138.903 19.024C139.196 18.452 139.629 18.012 140.201 17.704C140.773 17.3813 141.425 17.22 142.159 17.22C143.229 17.22 144.139 17.5793 144.887 18.298C145.649 19.0167 146.089 20.1973 146.207 21.84L146.493 25.602ZM159.939 28.22C157.798 28.22 156.001 27.3987 154.549 25.756C153.112 24.1133 152.393 22.192 152.393 19.992C152.393 17.7333 153.068 15.8707 154.417 14.404C155.767 12.9227 157.534 12.182 159.719 12.182C161.45 12.182 162.946 12.6 164.207 13.436C165.469 14.2573 166.099 15.24 166.099 16.384C166.099 16.8973 165.931 17.3153 165.593 17.638C165.271 17.9607 164.831 18.122 164.273 18.122C163.775 18.122 163.327 17.9753 162.931 17.682C162.535 17.374 162.205 17.0073 161.941 16.582C161.692 16.1567 161.435 15.7313 161.171 15.306C160.907 14.866 160.585 14.4993 160.203 14.206C159.837 13.898 159.411 13.744 158.927 13.744C158.194 13.744 157.563 14.0887 157.035 14.778C156.522 15.4673 156.265 16.3987 156.265 17.572C156.265 19.64 156.764 21.3413 157.761 22.676C158.759 23.996 159.91 24.656 161.215 24.656C161.699 24.656 162.139 24.5827 162.535 24.436C162.946 24.2893 163.305 24.084 163.613 23.82C163.936 23.5413 164.178 23.2993 164.339 23.094C164.515 22.8887 164.713 22.632 164.933 22.324C165.139 22.0747 165.395 21.994 165.703 22.082C166.011 22.1553 166.158 22.368 166.143 22.72C166.085 24.2453 165.52 25.5433 164.449 26.614C163.393 27.6847 161.89 28.22 159.939 28.22ZM173.202 28.22C171.501 28.22 170.056 27.6993 168.868 26.658C167.695 25.602 167.108 24.282 167.108 22.698C167.108 21.114 167.695 19.8087 168.868 18.782C170.042 17.7407 171.435 17.22 173.048 17.22C174.72 17.22 176.143 17.7407 177.316 18.782C178.49 19.8233 179.076 21.1433 179.076 22.742C179.076 24.326 178.504 25.6387 177.36 26.68C176.216 27.7067 174.83 28.22 173.202 28.22ZM173.664 27.142C174.603 27.142 175.072 26.24 175.072 24.436C175.072 23.776 174.977 22.9913 174.786 22.082C174.61 21.1727 174.302 20.3147 173.862 19.508C173.437 18.7013 172.96 18.298 172.432 18.298C171.919 18.298 171.552 18.5253 171.332 18.98C171.112 19.4347 171.002 20.124 171.002 21.048C171.002 21.532 171.061 22.104 171.178 22.764C171.296 23.424 171.457 24.0913 171.662 24.766C171.868 25.426 172.146 25.9907 172.498 26.46C172.865 26.9147 173.254 27.142 173.664 27.142ZM184.136 27.692C183.711 28.044 183.161 28.22 182.486 28.22C181.811 28.22 181.254 28.044 180.814 27.692C180.374 27.34 180.154 26.8193 180.154 26.13C180.154 25.4553 180.374 24.942 180.814 24.59C181.254 24.238 181.811 24.062 182.486 24.062C183.161 24.062 183.711 24.238 184.136 24.59C184.576 24.942 184.796 25.4553 184.796 26.13C184.796 26.8047 184.576 27.3253 184.136 27.692Z" fill="white"/>
<path d="M3 2H44L37.85 10.1429H8.46667L3 18.2857H37.85L31.0167 26.4286H3V40" stroke="white" stroke-width="3"/>
</svg>
